<svg width="1440" height="360" viewBox="0 0 1440 360" fill="none" xmlns="http://www.w3.org/2000/svg">
  <defs>
    <linearGradient id="badgeGradient" x1="28" y1="44" x2="470" y2="316" gradientUnits="userSpaceOnUse">
      <stop stop-color="#7B8FFF" />
      <stop offset="1" stop-color="#3B4FFF" />
    </linearGradient>
    <clipPath id="badgeClip">
      <rect x="0" y="44" width="470" height="272" rx="68" />
    </clipPath>
  </defs>
  <rect x="0" y="44" width="470" height="272" rx="68" fill="url(#badgeGradient)" />
    <path d="M0 44H470V125.600L0 71.200V44Z" fill="#FFFFFF" fill-opacity="0.14" clip-path="url(#badgeClip)"/>
  <path d="M153 0V1400H557V906H1025V1400H1429V0H1025V538H557V0Z" transform="translate(65.020 224.000) scale(0.071000 -0.071000)" fill="#FFFFFF"/>
  <path d="M84 0V256L378 516Q512 635 583.5 708.5Q655 782 681.5 833.5Q708 885 708 938Q708 1016 658.0 1056.0Q608 1096 512 1096Q421 1096 338.0 1057.5Q255 1019 184 944L50 1236Q152 1328 284.5 1379.0Q417 1430 550 1430Q713 1430 831.5 1374.5Q950 1319 1014.0 1220.0Q1078 1121 1078 992Q1078 907 1044.5 827.5Q1011 748 927.5 649.5Q844 551 694 408L608 326H1116V0Z" transform="translate(175.342 224.000) scale(0.071000 -0.071000)" fill="#FFFFFF"/>
  <path d="M300 -30Q206 -30 136.0 29.5Q66 89 66 192Q66 262 98.0 312.0Q130 362 183.5 389.0Q237 416 300 416Q395 416 464.5 356.5Q534 297 534 192Q534 123 501.5 73.0Q469 23 416.0 -3.5Q363 -30 300 -30Z" transform="translate(264.684 224.000) scale(0.071000 -0.071000)" fill="#FFFFFF"/>
  <path d="M688 -30Q541 -30 427.5 27.0Q314 84 237.0 185.0Q160 286 120.0 418.0Q80 550 80 700Q80 851 120.0 983.0Q160 1115 237.0 1215.5Q314 1316 427.5 1373.0Q541 1430 688 1430Q835 1430 948.5 1373.0Q1062 1316 1139.0 1215.5Q1216 1115 1256.0 983.0Q1296 851 1296 700Q1296 550 1256.0 418.0Q1216 286 1139.0 185.0Q1062 84 948.5 27.0Q835 -30 688 -30ZM688 312Q741 312 783.0 336.5Q825 361 855.5 409.5Q886 458 902.0 530.5Q918 603 918 700Q918 829 889.5 915.5Q861 1002 809.5 1045.0Q758 1088 688 1088Q636 1088 593.5 1063.5Q551 1039 520.5 990.5Q490 942 474.0 869.5Q458 797 458 700Q458 571 486.5 485.0Q515 399 566.5 355.5Q618 312 688 312Z" transform="translate(307.284 224.000) scale(0.071000 -0.071000)" fill="#FFFFFF"/>
  <path d="M909 0V508Q831 486 759.0 473.0Q687 460 609 460Q449 460 328.5 515.5Q208 571 140.5 691.5Q73 812 73 1008V1400H477V1062Q477 924 532.5 868.0Q588 812 693 812Q758 812 809.0 819.0Q860 826 909 838V1400H1313V0Z" transform="translate(515.000 168.000) scale(0.055000 -0.055000)" fill="#FFFFFF"/>
  <path d="M629 -30Q454 -30 323.0 39.0Q192 108 119.5 232.0Q47 356 47 522Q47 643 89.5 743.5Q132 844 209.5 917.0Q287 990 392.5 1030.0Q498 1070 625 1070Q767 1070 877.5 1020.0Q988 970 1060.0 880.5Q1132 791 1158.0 670.5Q1184 550 1155 408H405Q409 367 439.5 336.0Q470 305 521.0 287.5Q572 270 637 270Q732 270 814.0 292.0Q896 314 977 362L1093 98Q1047 63 968.0 34.0Q889 5 799.0 -12.5Q709 -30 629 -30ZM431 668H779Q779 722 733.0 756.0Q687 790 613 790Q537 790 486.5 756.0Q436 722 431 668Z" transform="translate(592.130 168.000) scale(0.055000 -0.055000)" fill="#FFFFFF"/>
  <path d="M149 -30 23 320Q126 346 172.5 392.5Q219 439 231.0 513.5Q243 588 243 698V1040H1205V0H805V728H603V698Q603 545 582.5 422.5Q562 300 511.5 208.5Q461 117 373.0 57.5Q285 -2 149 -30Z" transform="translate(655.565 168.000) scale(0.055000 -0.055000)" fill="#FFFFFF"/>
  <path d="M635.1141732283464 -30.0Q461 -30 328.5 45.0Q196 120 121.5 245.06738544474393Q47.0 370.13477088948787 47 520Q47 628 89.5 727.0Q132 826 210.5 903.0Q289 980 397.0 1025.0Q505 1070 635.4566929133858 1070.0Q809 1070 941.5 995.0Q1074 920 1148.5 794.9326145552561Q1223.0 669.8652291105121 1223 520Q1223 412 1180.5 313.0Q1138 214 1059.5 137.0Q981 60 873.5 15.0Q766 -30 635.1141732283464 -30.0ZM635 310Q691 310 736.5 335.5Q782 361 808.5 408.2277227722772Q835.0 455.45544554455444 835 520Q835 585 809.0714285714286 632.0340501792115Q783.1428571428571 679.068100358423 737.5714285714286 704.5340501792115Q692 730 635 730Q578 730 532.4285714285714 704.5340501792115Q486.8571428571429 679.068100358423 460.92857142857144 632.0340501792115Q435 585 435 520Q435 455 461.5 408.0Q488 361 533.5 335.5Q579 310 635 310Z" transform="translate(725.215 168.000) scale(0.055000 -0.055000)" fill="#FFFFFF"/>
  <path d="M125 0V1040H703Q894 1040 997.5 974.5Q1101 909 1101 774Q1101 694 1058.5 642.0Q1016 590 946.5 561.5Q877 533 795 524L789 614Q950 605 1048.5 529.5Q1147 454 1147 326Q1147 224 1097.0 151.0Q1047 78 949.5 39.0Q852 0 709 0ZM505 260H657Q707 260 732.0 279.5Q757 299 757 332Q757 362 733.5 381.0Q710 400 657 400H473V644H631Q679 644 705.0 660.5Q731 677 731 710Q731 743 703.5 761.5Q676 780 631 780H505Z" transform="translate(791.565 168.000) scale(0.055000 -0.055000)" fill="#FFFFFF"/>
  <path d="M629 -30Q454 -30 323.0 39.0Q192 108 119.5 232.0Q47 356 47 522Q47 643 89.5 743.5Q132 844 209.5 917.0Q287 990 392.5 1030.0Q498 1070 625 1070Q767 1070 877.5 1020.0Q988 970 1060.0 880.5Q1132 791 1158.0 670.5Q1184 550 1155 408H405Q409 367 439.5 336.0Q470 305 521.0 287.5Q572 270 637 270Q732 270 814.0 292.0Q896 314 977 362L1093 98Q1047 63 968.0 34.0Q889 5 799.0 -12.5Q709 -30 629 -30ZM431 668H779Q779 722 733.0 756.0Q687 790 613 790Q537 790 486.5 756.0Q436 722 431 668Z" transform="translate(854.450 168.000) scale(0.055000 -0.055000)" fill="#FFFFFF"/>
  <path d="M785 0 475 538 817 1040H1237L901 560L1255 0ZM125 0V1040H525V682H845V370H525V0Z" transform="translate(917.885 168.000) scale(0.055000 -0.055000)" fill="#FFFFFF"/>
  <path d="M84 0V256L378 516Q512 635 583.5 708.5Q655 782 681.5 833.5Q708 885 708 938Q708 1016 658.0 1056.0Q608 1096 512 1096Q421 1096 338.0 1057.5Q255 1019 184 944L50 1236Q152 1328 284.5 1379.0Q417 1430 550 1430Q713 1430 831.5 1374.5Q950 1319 1014.0 1220.0Q1078 1121 1078 992Q1078 907 1044.5 827.5Q1011 748 927.5 649.5Q844 551 694 408L608 326H1116V0Z" transform="translate(1004.715 168.000) scale(0.055000 -0.055000)" fill="#FFFFFF"/>
  <path d="M300 -30Q206 -30 136.0 29.5Q66 89 66 192Q66 262 98.0 312.0Q130 362 183.5 389.0Q237 416 300 416Q395 416 464.5 356.5Q534 297 534 192Q534 123 501.5 73.0Q469 23 416.0 -3.5Q363 -30 300 -30Z" transform="translate(1067.325 168.000) scale(0.055000 -0.055000)" fill="#FFFFFF"/>
  <path d="M688 -30Q541 -30 427.5 27.0Q314 84 237.0 185.0Q160 286 120.0 418.0Q80 550 80 700Q80 851 120.0 983.0Q160 1115 237.0 1215.5Q314 1316 427.5 1373.0Q541 1430 688 1430Q835 1430 948.5 1373.0Q1062 1316 1139.0 1215.5Q1216 1115 1256.0 983.0Q1296 851 1296 700Q1296 550 1256.0 418.0Q1216 286 1139.0 185.0Q1062 84 948.5 27.0Q835 -30 688 -30ZM688 312Q741 312 783.0 336.5Q825 361 855.5 409.5Q886 458 902.0 530.5Q918 603 918 700Q918 829 889.5 915.5Q861 1002 809.5 1045.0Q758 1088 688 1088Q636 1088 593.5 1063.5Q551 1039 520.5 990.5Q490 942 474.0 869.5Q458 797 458 700Q458 571 486.5 485.0Q515 399 566.5 355.5Q618 312 688 312Z" transform="translate(1096.825 168.000) scale(0.055000 -0.055000)" fill="#FFFFFF"/>
  <path d="M378.59991455078125 -8Q268.7999267578125 -8 191.10000610351562 36.10003662109375Q113.40008544921875 80.2000732421875 72.70016479492188 160.90008544921875Q32.000244140625 241.60009765625 32.000244140625 350.60003662109375Q32.000244140625 461.7999267578125 74.00015258789062 544.0999145507812Q116.00006103515625 626.39990234375 193.29998779296875 671.4999389648438Q270.59991455078125 716.5999755859375 376.5999755859375 716.5999755859375Q458.59991455078125 716.5999755859375 524.6997680664062 687.7000427246094Q590.7996215820312 658.8001098632812 632.1995239257812 602.2003173828125Q673.5994262695312 545.6005249023438 682.5994873046875 460.40093994140625H528.2005004882812Q515.6004638671875 509.20098876953125 479.3002624511719 536.6010437011719Q443.00006103515625 564.0010986328125 380.79986572265625 564.0010986328125Q313.599609375 564.0010986328125 273.6994323730469 533.7009582519531Q233.79925537109375 503.40081787109375 216.59915161132812 456.3005676269531Q199.3990478515625 409.2003173828125 199.3990478515625 357.5999755859375Q199.3990478515625 305.1995849609375 217.59915161132812 256.1993408203125Q235.79925537109375 207.1990966796875 276.3994445800781 175.89898681640625Q316.9996337890625 144.598876953125 383.79986572265625 144.598876953125Q424.20001220703125 144.598876953125 454.5001525878906 156.59890747070312Q484.80029296875 168.59893798828125 504.900390625 191.79898071289062Q525.00048828125 214.9990234375 532.6005249023438 247.3990478515625H691.5995483398438Q683.7994384765625 163.7994384765625 639.2995300292969 106.69964599609375Q594.7996215820312 49.599853515625 526.5997619628906 20.7999267578125Q458.39990234375 -8 378.59991455078125 -8Z" transform="translate(515.000 254.000) scale(0.059000 -0.059000)" fill="#D9DFF2"/>
  <path d="M71.000244140625 0V707.7999877929688H357.599609375Q439.59954833984375 707.7999877929688 501.199462890625 683.8999633789062Q562.7993774414062 659.9999389648438 597.4992980957031 605.9999694824219Q632.19921875 552 632.19921875 460.00018310546875Q632.19921875 374.80029296875 594.8992614746094 318.100341796875Q557.5993041992188 261.400390625 493.599365234375 233.60040283203125Q429.59942626953125 205.8004150390625 348.39947509765625 205.8004150390625H233.1990966796875V0ZM233.1990966796875 350.3994140625H347.59942626953125Q405.3997802734375 350.3994140625 438.7000427246094 378.0995788574219Q472.00030517578125 405.79974365234375 472.00030517578125 460.000244140625Q472.00030517578125 508.8006591796875 443.4001159667969 533.2008666992188Q414.7999267578125 557.60107421875 350.399658203125 557.60107421875H233.1990966796875Z" transform="translate(565.316 254.000) scale(0.059000 -0.059000)" fill="#D9DFF2"/>
  <path d="M71.000244140625 0V707.7999877929688H593.1995239257812V557.60107421875H233.1990966796875V423.5994873046875H535.7998046875V279.6004638671875H233.1990966796875V149.39892578125H593.1995239257812V0Z" transform="translate(611.856 254.000) scale(0.059000 -0.059000)" fill="#D9DFF2"/>
  <path d="M10.00018310546875 -173.40032958984375V149.39892578125Q53.2000732421875 149.39892578125 73.70004272460938 172.89877319335938Q94.20001220703125 196.39862060546875 102.60003662109375 229.7984619140625Q112.20001220703125 265.7982177734375 117.00003051757812 303.4980773925781Q121.800048828125 341.19793701171875 124.30007934570312 377.89788818359375Q126.80010986328125 414.59783935546875 128.0001220703125 448.59783935546875Q131.00018310546875 518.1983032226562 132.40020751953125 581.7988586425781Q133.80023193359375 645.3994140625 134.000244140625 707.7999877929688H649.999267578125V149.39892578125H734.999267578125V-173.40032958984375H572.8004150390625V0H172.19903564453125V-173.40032958984375ZM245.3990478515625 149.39892578125H487.8004150390625V557.60107421875H282.19927978515625L277.99920654296875 352.20001220703125Q277.7991943359375 332.99993896484375 276.2991943359375 307.1998291015625Q274.7991943359375 281.39971923828125 271.09918212890625 253.6995849609375Q267.399169921875 225.99945068359375 261.3991394042969 198.79928588867188Q255.39910888671875 171.59912109375 245.3990478515625 149.39892578125Z" transform="translate(656.331 254.000) scale(0.059000 -0.059000)" fill="#D9DFF2"/>
  <path d="M-1.99981689453125 0 277.7999267578125 707.7999877929688H449.99920654296875L727.198974609375 0H552.4002075195312L513.199951171875 110.400634765625H211.99920654296875L171.99896240234375 0ZM263.39886474609375 256.599609375H461.80029296875L363.799560546875 531.0015258789062Z" transform="translate(707.886 254.000) scale(0.059000 -0.059000)" fill="#D9DFF2"/>
  <path d="M70.000244140625 0V707.7999877929688H401.198974609375Q447.799072265625 707.7999877929688 487.59912109375 698.5Q527.399169921875 689.2000122070312 556.8992004394531 667.6000366210938Q586.3992309570312 646.0000610351562 602.9992370605469 610.4000854492188Q619.5992431640625 574.8001098632812 619.5992431640625 521.2001342773438Q619.5992431640625 479.99993896484375 600.6991577148438 443.1998596191406Q581.799072265625 406.3997802734375 546.798828125 386.3997802734375Q593.9991455078125 367.9998779296875 622.3992309570312 326.49981689453125Q650.79931640625 284.999755859375 650.79931640625 219.399658203125Q650.79931640625 154.3997802734375 627.2993469238281 111.599853515625Q603.7993774414062 68.7999267578125 563.2994079589844 44.299957275390625Q522.7994384765625 19.79998779296875 470.7994689941406 9.899993896484375Q418.79949951171875 0 361.79949951171875 0ZM232.1990966796875 149.39892578125H377.99920654296875Q403.3992919921875 149.39892578125 423.6994934082031 153.69891357421875Q443.99969482421875 157.9989013671875 458.59991455078125 166.69894409179688Q473.20013427734375 175.39898681640625 480.80029296875 189.59915161132812Q488.40045166015625 203.79931640625 488.40045166015625 223.399658203125Q488.40045166015625 242.59991455078125 481.7003479003906 255.60006713867188Q475.000244140625 268.6002197265625 462.10009765625 277.2002868652344Q449.199951171875 285.80035400390625 430.9997863769531 289.6003723144531Q412.79962158203125 293.400390625 389.99951171875 293.400390625H232.1990966796875ZM232.1990966796875 425.799560546875H360.99920654296875Q385.19940185546875 425.799560546875 403.599609375 430.6995849609375Q421.99981689453125 435.599609375 434.0 444.99969482421875Q446.00018310546875 454.3997802734375 452.30029296875 467.199951171875Q458.60040283203125 480.0001220703125 458.60040283203125 496.8004150390625Q458.60040283203125 520.4007568359375 448.4002380371094 533.6008911132812Q438.2000732421875 546.801025390625 418.9998474121094 552.6010437011719Q399.79962158203125 558.4010620117188 372.59942626953125 558.4010620117188H232.1990966796875Z" transform="translate(782.735 254.000) scale(0.059000 -0.059000)" fill="#D9DFF2"/>
  <path d="M71.000244140625 0V707.7999877929688H233.1990966796875V423.7994384765625H514.6005859375V707.7999877929688H676.7994384765625V0H514.6005859375V275.00048828125H233.1990966796875V0Z" transform="translate(830.691 254.000) scale(0.059000 -0.059000)" fill="#D9DFF2"/>
  <path d="M71.000244140625 0V707.7999877929688H593.1995239257812V557.60107421875H233.1990966796875V423.5994873046875H535.7998046875V279.6004638671875H233.1990966796875V149.39892578125H593.1995239257812V0Z" transform="translate(882.423 254.000) scale(0.059000 -0.059000)" fill="#D9DFF2"/>
  <path d="M10.00018310546875 -173.40032958984375V149.39892578125Q53.2000732421875 149.39892578125 73.70004272460938 172.89877319335938Q94.20001220703125 196.39862060546875 102.60003662109375 229.7984619140625Q112.20001220703125 265.7982177734375 117.00003051757812 303.4980773925781Q121.800048828125 341.19793701171875 124.30007934570312 377.89788818359375Q126.80010986328125 414.59783935546875 128.0001220703125 448.59783935546875Q131.00018310546875 518.1983032226562 132.40020751953125 581.7988586425781Q133.80023193359375 645.3994140625 134.000244140625 707.7999877929688H649.999267578125V149.39892578125H734.999267578125V-173.40032958984375H572.8004150390625V0H172.19903564453125V-173.40032958984375ZM245.3990478515625 149.39892578125H487.8004150390625V557.60107421875H282.19927978515625L277.99920654296875 352.20001220703125Q277.7991943359375 332.99993896484375 276.2991943359375 307.1998291015625Q274.7991943359375 281.39971923828125 271.09918212890625 253.6995849609375Q267.399169921875 225.99945068359375 261.3991394042969 198.79928588867188Q255.39910888671875 171.59912109375 245.3990478515625 149.39892578125Z" transform="translate(926.898 254.000) scale(0.059000 -0.059000)" fill="#D9DFF2"/>
  <path d="M71.000244140625 0V707.7999877929688H357.599609375Q439.59954833984375 707.7999877929688 501.199462890625 683.8999633789062Q562.7993774414062 659.9999389648438 597.4992980957031 605.9999694824219Q632.19921875 552 632.19921875 460.00018310546875Q632.19921875 374.80029296875 594.8992614746094 318.100341796875Q557.5993041992188 261.400390625 493.599365234375 233.60040283203125Q429.59942626953125 205.8004150390625 348.39947509765625 205.8004150390625H233.1990966796875V0ZM233.1990966796875 350.3994140625H347.59942626953125Q405.3997802734375 350.3994140625 438.7000427246094 378.0995788574219Q472.00030517578125 405.79974365234375 472.00030517578125 460.000244140625Q472.00030517578125 508.8006591796875 443.4001159667969 533.2008666992188Q414.7999267578125 557.60107421875 350.399658203125 557.60107421875H233.1990966796875Z" transform="translate(978.453 254.000) scale(0.059000 -0.059000)" fill="#D9DFF2"/>
  <path d="M71.000244140625 0V707.7999877929688H593.1995239257812V557.60107421875H233.1990966796875V423.5994873046875H535.7998046875V279.6004638671875H233.1990966796875V149.39892578125H593.1995239257812V0Z" transform="translate(1024.993 254.000) scale(0.059000 -0.059000)" fill="#D9DFF2"/>
  <path d="M71.000244140625 0V707.7999877929688H233.1990966796875V423.7994384765625H514.6005859375V707.7999877929688H676.7994384765625V0H514.6005859375V275.00048828125H233.1990966796875V0Z" transform="translate(1069.468 254.000) scale(0.059000 -0.059000)" fill="#D9DFF2"/>
  <path d="M71.000244140625 0V707.7999877929688H233.1990966796875V276.7978515625L558.5999145507812 707.7999877929688H690.5993041992188V0H528.4004516601562V424.40216064453125L202.79962158203125 0Z" transform="translate(1121.200 254.000) scale(0.059000 -0.059000)" fill="#D9DFF2"/>
  <path d="M40.00030517578125 0 226.999755859375 259.40032958984375Q148.99993896484375 285.00018310546875 109.599853515625 339.7001037597656Q70.19976806640625 394.4000244140625 70.19976806640625 476.80010986328125Q70.19976806640625 544 93.7996826171875 588.7999572753906Q117.39959716796875 633.5999145507812 158.0994873046875 659.7999267578125Q198.79937744140625 685.9999389648438 251.8992919921875 696.8999633789062Q304.99920654296875 707.7999877929688 362.99920654296875 707.7999877929688H644.9989013671875V0H482.800048828125V233.00048828125H386.79864501953125L232.99884033203125 0ZM356.19970703125 376.79949951171875H482.800048828125V557.60107421875H348.3994140625Q314.59906005859375 557.60107421875 287.9989013671875 549.3009643554688Q261.39874267578125 541.0008544921875 245.7987060546875 522.0006713867188Q230.19866943359375 503.00048828125 230.19866943359375 470.20025634765625Q230.19866943359375 432.99993896484375 249.19879150390625 412.7997741699219Q268.19891357421875 392.599609375 297.4991455078125 384.6995544433594Q326.79937744140625 376.79949951171875 356.19970703125 376.79949951171875Z" transform="translate(1173.758 254.000) scale(0.059000 -0.059000)" fill="#D9DFF2"/>
  <path d="M71.000244140625 0V707.7999877929688H233.1990966796875V276.7978515625L558.5999145507812 707.7999877929688H690.5993041992188V0H528.4004516601562V424.40216064453125L202.79962158203125 0Z" transform="translate(1248.076 254.000) scale(0.059000 -0.059000)" fill="#D9DFF2"/>
  <path d="M71.000244140625 0V707.7999877929688H233.1990966796875V276.7978515625L558.5999145507812 707.7999877929688H690.5993041992188V0H528.4004516601562V424.40216064453125L202.79962158203125 0Z" transform="translate(1300.634 254.000) scale(0.059000 -0.059000)" fill="#D9DFF2"/>
</svg>
