<svg xmlns="http://www.w3.org/2000/svg" xmlns:xlink="http://www.w3.org/1999/xlink" viewBox="0 0 512 512" width="512" height="512" style="width: 100%; height: 100%; transform: translate3d(0,0,0);" preserveAspectRatio="xMidYMid meet"><defs><clipPath id="__lottie_element_2"><rect width="512" height="512" x="0" y="0"></rect></clipPath><radialGradient id="__lottie_element_43" spreadMethod="pad" gradientUnits="userSpaceOnUse" cx="-0.3059999942779541" cy="-33.250999450683594" r="227.00422218060953" fx="-0.3059999942779541" fy="-33.250999450683594"><stop offset="30%" stop-color="rgb(252,252,252)"></stop><stop offset="91%" stop-color="rgb(203,203,203)"></stop><stop offset="100%" stop-color="rgb(154,154,154)"></stop></radialGradient></defs><g clip-path="url(#__lottie_element_2)"><g style="display: block;" transform="matrix(0.9291800260543823,0,0,0.9291800260543823,253.99075317382812,257.492919921875)" opacity="1"><g opacity="1" transform="matrix(1,0,0,1,0,0)"><path fill="url(#__lottie_element_43)" fill-opacity="1" d=" M-59.8380012512207,151.3470001220703 C-59.8380012512207,151.3470001220703 32.72999954223633,167.18099975585938 101.5459976196289,145.2570037841797 C200.3090057373047,113.79299926757812 227.1959991455078,35.948001861572266 215.76100158691406,-64.06999969482422 C204.74899291992188,-160.39199829101562 136.9929962158203,-217.99400329589844 -5.989999771118164,-217.99400329589844 C-152.4669952392578,-217.99400329589844 -218.322998046875,-135.3979949951172 -218.21800231933594,-24.381999969482422 C-218.16900634765625,27.621999740600586 -205.63400268554688,56.42900085449219 -191.4499969482422,79.1719970703125 C-179.84800720214844,97.7760009765625 -163.60299682617188,109.81500244140625 -156.2530059814453,112.7959976196289 C-156.2530059814453,112.7959976196289 -149.70199584960938,135.2899932861328 -157.4029998779297,163.83099365234375 C-164.53900146484375,190.2779998779297 -183.6739959716797,212.3159942626953 -183.99099731445312,216.12399291992188 C-184.30799865722656,219.9320068359375 -145.64300537109375,220.00399780273438 -109.41799926757812,195.81399536132812 C-70.4749984741211,169.80799865722656 -59.8380012512207,151.3470001220703 -59.8380012512207,151.3470001220703z"></path></g></g><g style="display: block;" transform="matrix(0.9291800260543823,0,0,0.9291800260543823,253.99075317382812,193.443603515625)" opacity="0.5"><g opacity="1" transform="matrix(1,0,0,1,0,0)"><path fill="rgb(255,255,255)" fill-opacity="1" d=" M192.2030029296875,149.06500244140625 C210.61900329589844,112.63099670410156 214.74899291992188,67.02999877929688 209.0489959716797,15.555999755859375 C198.38299560546875,-80.76499938964844 132.73399353027344,-138.3679962158203 -5.802000045776367,-138.3679962158203 C-147.7239990234375,-138.3679962158203 -211.52699279785156,-55.77299880981445 -211.4250030517578,55.242000579833984 C-211.3939971923828,98.91600036621094 -202.8179931640625,126.23300170898438 -191.92799377441406,147.33099365234375 C-205.91799926757812,124.7040023803711 -218.16400146484375,95.95899963378906 -218.21499633789062,44.54600143432617 C-218.31700134277344,-66.46900177001953 -152.46499633789062,-149.06500244140625 -5.985000133514404,-149.06500244140625 C136.9969940185547,-149.06500244140625 204.7449951171875,-91.46199798583984 215.75799560546875,4.859000205993652 C222.23300170898438,61.50299835205078 216.42100524902344,111.04000091552734 192.2030029296875,149.06500244140625z"></path></g></g><g style="display: block;" transform="matrix(0.9291800260543823,0,0,0.9291800260543823,254.01585388183594,82.87211608886719)" opacity="0.4"><g opacity="1" transform="matrix(1,0,0,1,0,0)"><path fill="rgb(255,255,255)" fill-opacity="1" d=" M104.1760025024414,0 C104.1760025024414,15.715999603271484 57.53499984741211,28.457000732421875 0,28.457000732421875 C-57.53499984741211,28.457000732421875 -104.1760025024414,15.715999603271484 -104.1760025024414,0 C-104.1760025024414,-15.715999603271484 -57.53499984741211,-28.457000732421875 0,-28.457000732421875 C57.53499984741211,-28.457000732421875 104.1760025024414,-15.715999603271484 104.1760025024414,0z"></path></g></g><g style="display: block;" transform="matrix(0.9291800260543823,0,0,0.9291800260543823,253.98983764648438,338.1856994628906)" opacity="0.2"><g opacity="1" transform="matrix(1,0,0,1,0,0)"><path fill="rgb(150,150,150)" fill-opacity="1" d=" M101.54299926757812,58.41999816894531 C32.73400115966797,80.34300231933594 -59.83399963378906,64.50700378417969 -59.83399963378906,64.50700378417969 C-59.83399963378906,64.50700378417969 -70.47000122070312,82.96399688720703 -109.41200256347656,108.97599792480469 C-145.64199829101562,133.16299438476562 -184.3090057373047,133.09300231933594 -183.9929962158203,129.2790069580078 C-183.677001953125,125.47599792480469 -164.53799438476562,103.43900299072266 -157.39999389648438,76.98799896240234 C-149.7010040283203,48.446998596191406 -156.2469940185547,25.952999114990234 -156.2469940185547,25.952999114990234 C-163.5989990234375,22.97599983215332 -179.84300231933594,10.932000160217285 -191.44700622558594,-7.666999816894531 C-205.63099670410156,-30.416000366210938 -218.16299438476562,-59.222999572753906 -218.21400451660156,-111.22799682617188 C-218.21400451660156,-111.22799682617188 -218.21400451660156,-111.91100311279297 -218.21400451660156,-111.91100311279297 C-216.08299255371094,-74.24299621582031 -187.85899353027344,25.30500030517578 -8.027999877929688,33.26499938964844 C214.43800354003906,43.11199951171875 216.55499267578125,-82.68699645996094 217.5240020751953,-131.1529998779297 C223.28500366210938,-40.685001373291016 193.70399475097656,29.05299949645996 101.54299926757812,58.41999816894531z"></path></g></g><g style="display: block;" transform="matrix(0.9291800260543823,0,0,0.9291800260543823,109.98458862304688,432.5021057128906)" opacity="1"><g opacity="1" transform="matrix(1,0,0,1,0,0)"><path fill="rgb(191,191,191)" fill-opacity="1" d=" M-6.291999816894531,25.465999603271484 C-6.333000183105469,25.47599983215332 -5.182000160217285,28.07900047302246 -5.2230000495910645,28.089000701904297 C-7.486000061035156,28.65999984741211 -4.5879998207092285,27.93600082397461 -6.689000129699707,28.3439998626709 C-6.71999979019165,28.354000091552734 -5.2230000495910645,28.09000015258789 -3.3570001125335693,27.732999801635742 C-3.989000082015991,27.834999084472656 -4.611000061035156,27.95599937438965 -5.2230000495910645,28.089000701904297 C-19.488000869750977,30.659000396728516 -29.176000595092773,29.690000534057617 -29.01300048828125,27.773000717163086 C-28.788999557495117,25.10099983215332 -19.274999618530273,13.425999641418457 -11.168000221252441,-2.4509999752044678 C-1.4299999475479126,-19.173999786376953 7.644999980926514,-34.96099853515625 21.926000595092773,-27.93400001525879 C35.638999938964844,-21.18600082397461 31.10099983215332,17.788999557495117 -6.291999816894531,25.465999603271484z"></path></g></g><g style="display: block;" transform="matrix(0.9291800260543823,0,0,0.9291800260543823,121.95799255371094,412.1363525390625)" opacity="0.3"><g opacity="1" transform="matrix(1,0,0,1,0,0)"><path fill="rgb(255,255,255)" fill-opacity="1" d=" M41.900001525878906,22.9950008392334 C41.900001525878906,22.9950008392334 41.900001525878906,23.006000518798828 41.900001525878906,23.006000518798828 C39.025001525878906,25.076000213623047 35.95500183105469,27.207000732421875 32.68199920654297,29.388999938964844 C-3.5480000972747803,53.57600021362305 -42.2140007019043,53.505001068115234 -41.89799880981445,49.691001892089844 C-41.582000732421875,45.88800048828125 -22.44300079345703,23.851999282836914 -15.305000305175781,-2.5989999771118164 C-8.982999801635742,-26.031999588012695 -12.267000198364258,-45.395999908447266 -13.642999649047852,-51.564998626708984 C-11.317999839782715,-50.93299865722656 -8.512999534606934,-49.95399856567383 -5.127999782562256,-48.51599884033203 C-5.127999782562256,-48.51599884033203 7.189000129699707,-3.515000104904175 -29.815000534057617,44.7859992980957 C-29.815000534057617,44.7859992980957 3.1010000705718994,49.069000244140625 41.900001525878906,22.9950008392334z"></path></g></g><g style="display: block;" transform="matrix(0.9291800260543823,0,0,0.9291800260543823,253.99075317382812,257.492919921875)" opacity="1"><g opacity="1" transform="matrix(1,0,0,1,0,0)"><path stroke-linecap="round" stroke-linejoin="round" fill-opacity="0" stroke="rgb(155,155,155)" stroke-opacity="1" stroke-width="7" d=" M-59.8380012512207,151.3470001220703 C-59.8380012512207,151.3470001220703 32.72999954223633,167.18099975585938 101.5459976196289,145.2570037841797 C200.3090057373047,113.79299926757812 227.1959991455078,35.948001861572266 215.76100158691406,-64.06999969482422 C204.74899291992188,-160.39199829101562 136.9929962158203,-217.99400329589844 -5.989999771118164,-217.99400329589844 C-152.4669952392578,-217.99400329589844 -218.322998046875,-135.3979949951172 -218.21800231933594,-24.381999969482422 C-218.16900634765625,27.621999740600586 -205.63400268554688,56.42900085449219 -191.4499969482422,79.1719970703125 C-179.84800720214844,97.7760009765625 -163.60299682617188,109.81500244140625 -156.2530059814453,112.7959976196289 C-156.2530059814453,112.7959976196289 -149.70199584960938,135.2899932861328 -157.4029998779297,163.83099365234375 C-164.53900146484375,190.2779998779297 -183.6739959716797,212.3159942626953 -183.99099731445312,216.12399291992188 C-184.30799865722656,219.9320068359375 -145.64300537109375,220.00399780273438 -109.41799926757812,195.81399536132812 C-70.4749984741211,169.80799865722656 -59.8380012512207,151.3470001220703 -59.8380012512207,151.3470001220703z"></path></g></g><g style="display: block;" transform="matrix(0.9291800260543823,0,0,0.9291800260543823,254.01585388183594,354.8886413574219)" opacity="1"><g opacity="1" transform="matrix(1,0,0,1,0,0)"><path stroke-linecap="round" stroke-linejoin="round" fill-opacity="0" stroke="rgb(119,119,119)" stroke-opacity="1" stroke-width="7" d=" M-217.8070068359375,-113.1760025024414 C-215.47500610351562,-71.05799865722656 -204.1320037841797,-45.9379997253418 -191.4770050048828,-25.645999908447266 C-179.875,-7.041999816894531 -163.62899780273438,4.997000217437744 -156.2790069580078,7.978000164031982 C-156.2790069580078,7.978000164031982 -149.72799682617188,30.472000122070312 -157.4290008544922,59.01300048828125 C-164.56500244140625,85.45999908447266 -183.7010040283203,107.49700164794922 -184.01800537109375,111.30500030517578 C-184.3350067138672,115.11299896240234 -145.66900634765625,115.18599700927734 -109.44400024414062,90.99600219726562 C-70.5009994506836,64.98999786376953 -59.86399841308594,46.52899932861328 -59.86399841308594,46.52899932861328 C-59.86399841308594,46.52899932861328 32.702999114990234,62.362998962402344 101.51899719238281,40.43899917602539 C181.0469970703125,15.102999687194824 213.97000122070312,-40.30699920654297 217.8070068359375,-113.1510009765625"></path></g></g><g style="display: block;" transform="matrix(0.9291800260543823,0,0,0.9291800260543823,184.6534881591797,233.03782653808594)" opacity="1"><g opacity="1" transform="matrix(1,0,0,1,0,0)"><path fill="rgb(54,54,54)" fill-opacity="1" d=" M17.986000061035156,0 C17.986000061035156,9.934000015258789 9.934000015258789,17.986000061035156 0,17.986000061035156 C-9.934000015258789,17.986000061035156 -17.986000061035156,9.934000015258789 -17.986000061035156,0 C-17.986000061035156,-9.934000015258789 -9.934000015258789,-17.986000061035156 0,-17.986000061035156 C9.934000015258789,-17.986000061035156 17.986000061035156,-9.934000015258789 17.986000061035156,0z"></path></g></g><g style="display: block;" transform="matrix(0.9291800260543823,0,0,0.9291800260543823,255.9680633544922,233.03782653808594)" opacity="1"><g opacity="1" transform="matrix(1,0,0,1,0,0)"><path fill="rgb(54,54,54)" fill-opacity="1" d=" M17.986000061035156,0 C17.986000061035156,9.934000015258789 9.934000015258789,17.986000061035156 0,17.986000061035156 C-9.934000015258789,17.986000061035156 -17.986000061035156,9.934000015258789 -17.986000061035156,0 C-17.986000061035156,-9.934000015258789 -9.934000015258789,-17.986000061035156 0,-17.986000061035156 C9.934000015258789,-17.986000061035156 17.986000061035156,-9.934000015258789 17.986000061035156,0z"></path></g></g><g style="display: block;" transform="matrix(0.9291800260543823,0,0,0.9291800260543823,327.2826232910156,233.03782653808594)" opacity="1"><g opacity="1" transform="matrix(1,0,0,1,0,0)"><path fill="rgb(54,54,54)" fill-opacity="1" d=" M17.986000061035156,0 C17.986000061035156,9.934000015258789 9.934000015258789,17.986000061035156 0,17.986000061035156 C-9.934000015258789,17.986000061035156 -17.986000061035156,9.934000015258789 -17.986000061035156,0 C-17.986000061035156,-9.934000015258789 -9.934000015258789,-17.986000061035156 0,-17.986000061035156 C9.934000015258789,-17.986000061035156 17.986000061035156,-9.934000015258789 17.986000061035156,0z"></path></g></g><g style="display: block;" transform="matrix(0.9291800260543823,0,0,0.9291800260543823,194.0614471435547,397.09478759765625)" opacity="1"><g opacity="1" transform="matrix(1,0,0,1,0,0)"><path stroke-linecap="round" stroke-linejoin="round" fill-opacity="0" stroke="rgb(119,119,119)" stroke-opacity="1" stroke-width="7" d=" M4.659999847412109,1.1050000190734863 C4.659999847412109,1.1050000190734863 0.34599998593330383,0.421999990940094 -4.659999847412109,-1.1050000190734863"></path></g></g><g style="display: block;" transform="matrix(0.9291800260543823,0,0,0.9291800260543823,112.01298522949219,363.61920166015625)" opacity="1"><g opacity="1" transform="matrix(1,0,0,1,0,0)"><path stroke-linecap="round" stroke-linejoin="round" fill-opacity="0" stroke="rgb(119,119,119)" stroke-opacity="1" stroke-width="7" d=" M-3.4539999961853027,-1.4190000295639038 C-3.4539999961853027,-1.4190000295639038 0.24699999392032623,0.23999999463558197 3.4539999961853027,1.4190000295639038"></path></g></g></g></svg>