<svg width="34" height="32" viewBox="0 0 34 32" fill="none" xmlns="http://www.w3.org/2000/svg">
<path fill-rule="evenodd" clip-rule="evenodd" d="M28.4122 1.47253C20.9347 -0.490844 13.0653 -0.490844 5.58771 1.47253C3.0776 2.13146 1.16047 4.15492 0.662154 6.67113C-0.220718 11.1303 -0.220718 15.7166 0.662154 20.1757C1.16034 22.6919 3.07747 24.7154 5.58771 25.375C10.1099 26.5624 14.7939 27.0367 19.4662 26.7797C20.0727 26.7465 20.6698 26.944 21.1339 27.3307L26.6408 31.9208C26.7417 32.0052 26.8835 32.0237 27.0033 31.9688C27.1231 31.9138 27.2002 31.7949 27.2002 31.6645V26.3343C27.2002 25.9508 27.466 25.614 27.8424 25.5207C28.0327 25.4734 28.2226 25.4248 28.4122 25.375C30.9225 24.7154 32.8397 22.6919 33.3378 20.1757C34.2207 15.7166 34.2207 11.1303 33.3378 6.67113C32.8395 4.15492 30.9224 2.13146 28.4122 1.47253ZM24.0833 5.94286C24.5948 5.94286 25.0096 6.3522 25.0096 6.85714V10.0571C25.0096 10.5621 24.5948 10.9714 24.0833 10.9714H20.8413C20.3297 10.9714 19.915 11.3808 19.915 11.8857V20.5714C19.915 21.0764 19.5003 21.4857 18.9887 21.4857H15.2836C14.772 21.4857 14.3573 21.0764 14.3573 20.5714V11.8857C14.3573 11.3808 13.9426 10.9714 13.4311 10.9714H10.1891C9.67751 10.9714 9.2628 10.5621 9.2628 10.0571V6.85714C9.2628 6.3522 9.67751 5.94286 10.1891 5.94286H24.0833Z" fill="#FC3234"/>
</svg>